<svg width="57" height="45" viewBox="0 0 57 45" fill="none" xmlns="http://www.w3.org/2000/svg">
<path d="M0.225586 34.9219C0.225586 36.1426 1.12891 36.9482 2.47168 36.9482H8.03809C12.0908 36.9482 14.4102 35.8008 17.3643 32.3828L23.2969 25.4736L29.2295 32.4072C32.1592 35.8008 34.5029 36.9482 38.5801 36.9482H43.6826V43.0029C43.6826 43.9795 44.2441 44.5166 45.2451 44.5166C45.709 44.5166 46.1484 44.3701 46.5146 44.0771L55.7432 36.4355C56.5244 35.7764 56.5244 34.7998 55.7432 34.1162L46.5146 26.4502C46.1484 26.1572 45.709 25.9863 45.2451 25.9863C44.2441 25.9863 43.6826 26.5479 43.6826 27.5244V32.8955H38.7021C36.0166 32.8955 34.2588 31.9922 32.1592 29.5264L25.9824 22.3242L32.1592 15.1221C34.2588 12.6807 36.0166 11.7773 38.7021 11.7773H43.6826V17.2949C43.6826 18.2715 44.2441 18.833 45.2451 18.833C45.709 18.833 46.1484 18.6621 46.5146 18.3691L55.7432 10.7275C56.5244 10.0928 56.5244 9.0918 55.7432 8.4082L46.5146 0.742188C46.1484 0.449219 45.709 0.302734 45.2451 0.302734C44.2441 0.302734 43.6826 0.839844 43.6826 1.81641V7.7002H38.5801C34.5029 7.7002 32.1592 8.84766 29.2295 12.2656L23.2969 19.1992L17.3643 12.2656C14.4102 8.87207 12.0908 7.72461 8.03809 7.72461H2.47168C1.12891 7.72461 0.225586 8.53027 0.225586 9.75098C0.225586 10.9473 1.15332 11.7773 2.47168 11.7773H8.16016C10.6748 11.7773 12.3594 12.6807 14.459 15.1465L20.6113 22.3242L14.459 29.5264C12.335 31.9922 10.6504 32.8955 8.16016 32.8955H2.47168C1.15332 32.8955 0.225586 33.7012 0.225586 34.9219Z" fill="#1E1E25"/>
</svg>
